<svg viewBox="128 162.8988 520.7996 118.1493" width="5000" height="1134.306746779375" xmlns="http://www.w3.org/2000/svg" xmlns:xlink="http://www.w3.org/1999/xlink" preserveAspectRatio="none"><defs></defs><style>.a-A3J1ferPfillColor {fill:#000000;fill-opacity:1;}.a-A3J1ferPstrokeColor-str {stroke:#3F3F3F;stroke-opacity:1;}.a6izo4zJpcolor {fill:#000000;fill-opacity:1;}.a6izo4zJpstrokeColor-str {stroke:#3F3F3F;stroke-opacity:1;}.aB8Zg4pULXcolor {fill:#000000;fill-opacity:1;}.aB8Zg4pULXstrokeColor-str {stroke:#3F3F3F;stroke-opacity:1;}.aBgmVxbl--0filter-floo {flood-color:#0E0000;flood-opacity:0.5;}.aD6z1nYkhcolor {fill:#000000;fill-opacity:1;}.aD6z1nYkhstrokeColor-str {stroke:#3F3F3F;stroke-opacity:1;}.ao0jQam8ydfillColor {fill:#000000;fill-opacity:1;}.ao0jQam8ydstrokeColor-str {stroke:#3F3F3F;stroke-opacity:1;}.aUPl23inifillColor {fill:#000000;fill-opacity:1;}.aUPl23inistrokeColor-str {stroke:#3F3F3F;stroke-opacity:1;}</style><g opacity="0.2" transform="rotate(0 250 243.39)">
<svg width="380" height="6.2343" x="250" y="243.39" version="1.1" preserveAspectRatio="none" viewBox="0 0 380 6.2343">
  <defs><rect x="0" y="0" width="380" height="6.2343" rx="4%" ry="4%" id="id-UPl23ini"></rect></defs><use class="aUPl23inifillColor aUPl23inistrokeColor-str" style="stroke-width:0;" xlink:href="#id-UPl23ini"></use>
</svg>
</g><g opacity="1" transform="rotate(0 250.6686 256.2981)">
<svg width="379.3314" height="18.5" x="250.6686" y="256.2981" version="1.1" preserveAspectRatio="none" viewBox="2.56 -28.56 749.6400000000001 36.56">
  <g transform="matrix(1 0 0 1 0 0)" class="a6izo4zJpcolor"><path id="id-6izo4zJp29" d="M12.40-2.56L12.40-2.56Q14.12-2.56 15.34-3.14Q16.56-3.72 17.34-4.70Q18.12-5.68 18.50-6.94Q18.88-8.20 18.88-9.60L18.88-9.60L18.88-10.08L22.24-10.08L22.24-9.60Q22.24-7.48 21.60-5.62Q20.96-3.76 19.72-2.38Q18.48-1 16.64-0.22Q14.80 0.56 12.40 0.56L12.40 0.56Q7.76 0.56 5.16-2.36Q2.56-5.28 2.56-10.88L2.56-10.88L2.56-17.12Q2.56-22.56 5.16-25.56Q7.76-28.56 12.40-28.56L12.40-28.56Q14.80-28.56 16.64-27.78Q18.48-27 19.72-25.62Q20.96-24.24 21.60-22.38Q22.24-20.52 22.24-18.40L22.24-18.40L22.24-17.92L18.88-17.92L18.88-18.40Q18.84-19.76 18.46-21.04Q18.08-22.32 17.30-23.30Q16.52-24.28 15.32-24.86Q14.12-25.44 12.40-25.44L12.40-25.44Q9.16-25.44 7.54-23.08Q5.92-20.72 5.92-16.88L5.92-16.88L5.92-11.12Q5.92-7 7.54-4.78Q9.16-2.56 12.40-2.56Z M43.96 3.92L43.96-3.60L43.48-3.60Q42.52-1.68 40.96-0.56Q39.40 0.56 37 0.56L37 0.56Q35.36 0.56 33.98 0.02Q32.60-0.52 31.62-1.60Q30.64-2.68 30.10-4.28Q29.56-5.88 29.56-8L29.56-8L29.56-19.84L32.68-19.84L32.68-8.40Q32.68-5.28 33.96-3.84Q35.24-2.40 37.88-2.40L37.88-2.40Q40.72-2.40 42.34-4.34Q43.96-6.28 43.96-9.52L43.96-9.52L43.96-19.84L47.08-19.84L47.08 4.88Q47.08 6.24 46.22 7.12Q45.36 8 44 8L44 8L32.68 8L32.68 5.12L42.88 5.12Q43.96 5.12 43.96 3.92L43.96 3.92Z M58.04-3.04L58.04 0L54.92 0L54.92-28L58.04-28L58.04-16.72L58.52-16.72Q59.56-18.52 61.40-19.46Q63.24-20.40 65.40-20.40L65.40-20.40Q67.24-20.40 68.88-19.72Q70.52-19.04 71.78-17.76Q73.04-16.48 73.78-14.60Q74.52-12.72 74.52-10.32L74.52-10.32L74.52-9.52Q74.52-7.08 73.80-5.20Q73.08-3.32 71.82-2.04Q70.56-0.76 68.88-0.10Q67.20 0.56 65.32 0.56L65.32 0.56Q64.36 0.56 63.36 0.34Q62.36 0.12 61.46-0.34Q60.56-0.80 59.80-1.46Q59.04-2.12 58.52-3.04L58.52-3.04L58.04-3.04ZM64.68-2.40L64.68-2.40Q66.12-2.40 67.32-2.90Q68.52-3.40 69.42-4.32Q70.32-5.24 70.82-6.56Q71.32-7.88 71.32-9.52L71.32-9.52L71.32-10.32Q71.32-11.92 70.82-13.22Q70.32-14.52 69.42-15.46Q68.52-16.40 67.30-16.92Q66.08-17.44 64.68-17.44L64.68-17.44Q63.28-17.44 62.08-16.90Q60.88-16.36 59.98-15.40Q59.08-14.44 58.56-13.10Q58.04-11.76 58.04-10.16L58.04-10.16L58.04-9.68Q58.04-8.04 58.56-6.70Q59.08-5.36 59.98-4.40Q60.88-3.44 62.08-2.92Q63.28-2.40 64.68-2.40Z M100-8.96L84-8.96Q84.12-6 85.84-4.20Q87.56-2.40 90.64-2.40L90.64-2.40Q92.04-2.40 93.08-2.72Q94.12-3.04 94.86-3.60Q95.60-4.16 96.06-4.90Q96.52-5.64 96.80-6.48L96.80-6.48L99.76-5.68Q98.92-2.92 96.66-1.18Q94.40 0.56 90.56 0.56L90.56 0.56Q88.44 0.56 86.66-0.18Q84.88-0.92 83.60-2.28Q82.32-3.64 81.60-5.52Q80.88-7.40 80.88-9.68L80.88-9.68L80.88-10.64Q80.88-12.72 81.62-14.52Q82.36-16.32 83.68-17.62Q85-18.92 86.78-19.66Q88.56-20.40 90.64-20.40L90.64-20.40Q93.08-20.40 94.86-19.50Q96.64-18.60 97.78-17.28Q98.92-15.96 99.46-14.40Q100-12.84 100-11.52L100-11.52L100-8.96ZM90.64-17.44L90.64-17.44Q89.32-17.44 88.18-17.02Q87.04-16.60 86.18-15.84Q85.32-15.08 84.78-14.06Q84.24-13.04 84.08-11.84L84.08-11.84L96.88-11.84Q96.80-13.12 96.26-14.16Q95.72-15.20 94.86-15.92Q94-16.64 92.90-17.04Q91.80-17.44 90.64-17.44Z M106.68-16.96L106.68-19.84L113.88-19.84L113.88-17.20L114.36-17.20Q115.12-18.84 116.52-19.62Q117.92-20.40 119.72-20.40L119.72-20.40Q122.72-20.40 124.56-18.44Q126.40-16.48 126.52-12.72L126.52-12.72L123.24-12.24Q123.24-15 121.92-16.22Q120.60-17.44 118.68-17.44L118.68-17.44Q117.44-17.44 116.54-16.96Q115.64-16.48 115.04-15.64Q114.44-14.80 114.16-13.68Q113.88-12.56 113.88-11.28L113.88-11.28L113.88-2.88L118.92-2.88L118.92 0L106.20 0L106.20-2.88L110.76-2.88L110.76-16.96L106.68-16.96Z M138.00-14.72L138.00-14.72Q138.00-13.28 139.22-12.52Q140.44-11.76 143.68-11.52L143.68-11.52Q147.16-11.24 148.98-9.86Q150.80-8.48 150.80-5.84L150.80-5.84L150.80-5.60Q150.80-4.16 150.22-3.02Q149.64-1.88 148.62-1.08Q147.60-0.28 146.14 0.14Q144.68 0.56 142.96 0.56L142.96 0.56Q140.64 0.56 138.98-0.06Q137.32-0.68 136.22-1.70Q135.12-2.72 134.56-4.02Q134.00-5.32 133.92-6.64L133.92-6.64L136.88-7.36Q137.08-5.08 138.64-3.70Q140.20-2.32 142.80-2.32L142.80-2.32Q145.00-2.32 146.34-3.18Q147.68-4.04 147.68-5.60L147.68-5.60Q147.68-7.28 146.36-8Q145.04-8.72 142.08-8.92L142.08-8.92Q138.64-9.16 136.80-10.52Q134.96-11.88 134.96-14.48L134.96-14.48L134.96-14.72Q134.96-16.12 135.56-17.18Q136.16-18.24 137.18-18.96Q138.20-19.68 139.48-20.04Q140.76-20.40 142.16-20.40L142.16-20.40Q144.12-20.40 145.60-19.86Q147.08-19.32 148.08-18.46Q149.08-17.60 149.62-16.48Q150.16-15.36 150.32-14.24L150.32-14.24L147.36-13.52Q147.16-15.44 145.82-16.52Q144.48-17.60 142.32-17.60L142.32-17.60Q141.48-17.60 140.70-17.42Q139.92-17.24 139.32-16.88Q138.72-16.52 138.36-15.98Q138.00-15.44 138.00-14.72Z M178.24-8.96L162.24-8.96Q162.36-6 164.08-4.20Q165.80-2.40 168.88-2.40L168.88-2.40Q170.28-2.40 171.32-2.72Q172.36-3.04 173.10-3.60Q173.84-4.16 174.30-4.90Q174.76-5.64 175.04-6.48L175.04-6.48L178.00-5.68Q177.16-2.92 174.90-1.18Q172.64 0.56 168.80 0.56L168.80 0.56Q166.68 0.56 164.90-0.18Q163.12-0.92 161.84-2.28Q160.56-3.64 159.84-5.52Q159.12-7.40 159.12-9.68L159.12-9.68L159.12-10.64Q159.12-12.72 159.86-14.52Q160.60-16.32 161.92-17.62Q163.24-18.92 165.02-19.66Q166.80-20.40 168.88-20.40L168.88-20.40Q171.32-20.40 173.10-19.50Q174.88-18.60 176.02-17.28Q177.16-15.96 177.70-14.40Q178.24-12.84 178.24-11.52L178.24-11.52L178.24-8.96ZM168.88-17.44L168.88-17.44Q167.56-17.44 166.42-17.02Q165.28-16.60 164.42-15.84Q163.56-15.08 163.02-14.06Q162.48-13.04 162.32-11.84L162.32-11.84L175.12-11.84Q175.04-13.12 174.50-14.16Q173.96-15.20 173.10-15.92Q172.24-16.64 171.14-17.04Q170.04-17.44 168.88-17.44Z M201.48-7.76L204.60-7.04Q204.28-5.40 203.50-4Q202.72-2.60 201.52-1.58Q200.32-0.56 198.72 0Q197.12 0.56 195.16 0.56L195.16 0.56Q193.08 0.56 191.22-0.12Q189.36-0.80 187.96-2.10Q186.56-3.40 185.74-5.28Q184.92-7.16 184.92-9.60L184.92-9.60L184.92-10.08Q184.92-12.48 185.74-14.40Q186.56-16.32 187.96-17.64Q189.36-18.96 191.22-19.68Q193.08-20.40 195.16-20.40L195.16-20.40Q197.04-20.40 198.64-19.84Q200.24-19.28 201.46-18.26Q202.68-17.24 203.46-15.84Q204.24-14.44 204.52-12.80L204.52-12.80L201.40-12.08Q201.28-13.12 200.82-14.10Q200.36-15.08 199.58-15.82Q198.80-16.56 197.68-17Q196.56-17.44 195.08-17.44L195.08-17.44Q193.64-17.44 192.38-16.90Q191.12-16.36 190.16-15.38Q189.20-14.40 188.66-13.04Q188.12-11.68 188.12-10.08L188.12-10.08L188.12-9.60Q188.12-7.92 188.66-6.58Q189.20-5.24 190.16-4.32Q191.12-3.40 192.40-2.90Q193.68-2.40 195.16-2.40L195.16-2.40Q196.64-2.40 197.74-2.86Q198.84-3.32 199.62-4.06Q200.40-4.80 200.86-5.76Q201.32-6.72 201.48-7.76L201.48-7.76Z M226.28-9.52L226.28-19.84L229.40-19.84L229.40 0L226.28 0L226.28-3.60L225.80-3.60Q224.84-1.68 223.28-0.56Q221.72 0.56 219.32 0.56L219.32 0.56Q217.68 0.56 216.30 0.02Q214.92-0.52 213.94-1.60Q212.96-2.68 212.42-4.28Q211.88-5.88 211.88-8L211.88-8L211.88-19.84L215.00-19.84L215.00-8.40Q215.00-5.28 216.28-3.84Q217.56-2.40 220.20-2.40L220.20-2.40Q223.04-2.40 224.66-4.34Q226.28-6.28 226.28-9.52L226.28-9.52Z M237.08-16.96L237.08-19.84L244.28-19.84L244.28-17.20L244.76-17.20Q245.52-18.84 246.92-19.62Q248.32-20.40 250.12-20.40L250.12-20.40Q253.12-20.40 254.96-18.44Q256.80-16.48 256.92-12.72L256.92-12.72L253.64-12.24Q253.64-15 252.32-16.22Q251.00-17.44 249.08-17.44L249.08-17.44Q247.84-17.44 246.94-16.96Q246.04-16.48 245.44-15.64Q244.84-14.80 244.56-13.68Q244.28-12.56 244.28-11.28L244.28-11.28L244.28-2.88L249.32-2.88L249.32 0L236.60 0L236.60-2.88L241.16-2.88L241.16-16.96L237.08-16.96Z M270.44-25.76L270.44-25.76Q270.44-26.92 271.26-27.74Q272.08-28.56 273.24-28.56L273.24-28.56Q274.40-28.56 275.22-27.74Q276.04-26.92 276.04-25.76L276.04-25.76Q276.04-24.60 275.22-23.78Q274.40-22.96 273.24-22.96L273.24-22.96Q272.08-22.96 271.26-23.78Q270.44-24.60 270.44-25.76ZM264.76 0L264.76-2.88L271.72-2.88L271.72-16.96L265.48-16.96L265.48-19.84L274.84-19.84L274.84-2.88L281.32-2.88L281.32 0L264.76 0Z M289.68-16.96L289.68-19.84L295.92-19.84L295.92-28L299.04-28L299.04-19.84L306.72-19.84L306.72-16.96L299.04-16.96L299.04-4.08Q299.04-2.88 300.12-2.88L300.12-2.88L305.76-2.88L305.76 0L299 0Q297.64 0 296.78-0.88Q295.92-1.76 295.92-3.12L295.92-3.12L295.92-16.96L289.68-16.96Z M330.84 3.92L330.84-3.60L330.36-3.60Q329.40-1.68 327.84-0.56Q326.28 0.56 323.88 0.56L323.88 0.56Q322.24 0.56 320.86 0.02Q319.48-0.52 318.50-1.60Q317.52-2.68 316.98-4.28Q316.44-5.88 316.44-8L316.44-8L316.44-19.84L319.56-19.84L319.56-8.40Q319.56-5.28 320.84-3.84Q322.12-2.40 324.76-2.40L324.76-2.40Q327.60-2.40 329.22-4.34Q330.84-6.28 330.84-9.52L330.84-9.52L330.84-19.84L333.96-19.84L333.96 4.88Q333.96 6.24 333.10 7.12Q332.24 8 330.88 8L330.88 8L319.56 8L319.56 5.12L329.76 5.12Q330.84 5.12 330.84 3.92L330.84 3.92Z M388.32-15.60L388.32-12.48L384.44-12.48L384.44 0L375.48 0Q373.48 0 371.92-0.56Q370.36-1.12 369.32-2.10Q368.28-3.08 367.74-4.42Q367.20-5.76 367.20-7.32L367.20-7.32L367.20-7.80Q367.20-10.08 368.56-11.66Q369.92-13.24 371.92-13.80L371.92-13.80L371.92-14.28Q369.92-14.80 368.56-16.38Q367.20-17.96 367.20-20.24L367.20-20.24L367.20-20.72Q367.20-22.28 367.74-23.62Q368.28-24.96 369.32-25.92Q370.36-26.88 371.92-27.44Q373.48-28 375.48-28L375.48-28L380.60-28L380.60-24.88L375.72-24.88Q373.36-24.88 371.88-23.70Q370.40-22.52 370.40-20.48L370.40-20.48L370.40-20.24Q370.40-18.08 371.80-16.84Q373.20-15.60 375.60-15.60L375.60-15.60L381.08-15.60L381.08-19.84L384.44-19.84L384.44-15.60L388.32-15.60ZM375.72-3.12L381.08-3.12L381.08-12.48L375.60-12.48Q373.20-12.48 371.80-11.22Q370.40-9.96 370.40-7.80L370.40-7.80L370.40-7.56Q370.40-5.48 371.88-4.30Q373.36-3.12 375.72-3.12L375.72-3.12Z M420.64-24.88L420.64-28L438.40-28L438.40-24.88L431.20-24.88L431.20-3.12L438.40-3.12L438.40 0L420.64 0L420.64-3.12L427.84-3.12L427.84-24.88L420.64-24.88Z M445.76-24.88L445.76-28L465.44-28L465.44-24.88L457.28-24.88L457.28 0L453.92 0L453.92-24.88L445.76-24.88Z M514.36-18.48L514.36-19.92Q514.36-21.28 513.82-22.32Q513.28-23.36 512.36-24.04Q511.44-24.72 510.24-25.08Q509.04-25.44 507.72-25.44L507.72-25.44Q506.56-25.44 505.52-25.14Q504.48-24.84 503.66-24.28Q502.84-23.72 502.36-22.90Q501.88-22.08 501.88-21L501.88-21L501.88-20.76Q501.88-19.60 502.36-18.78Q502.84-17.96 503.78-17.38Q504.72-16.80 506.12-16.42Q507.52-16.04 509.40-15.76L509.40-15.76Q513.80-15.08 515.88-13.18Q517.96-11.28 517.96-8.08L517.96-8.08L517.96-7.60Q517.96-5.80 517.34-4.30Q516.72-2.80 515.50-1.72Q514.28-0.64 512.48-0.04Q510.68 0.56 508.32 0.56L508.32 0.56Q505.64 0.56 503.58-0.22Q501.52-1 500.14-2.38Q498.76-3.76 498.04-5.62Q497.32-7.48 497.32-9.68L497.32-9.68L497.32-10.88L500.68-10.88L500.68-9.92Q500.68-6.24 502.70-4.40Q504.72-2.56 508.32-2.56L508.32-2.56Q511.44-2.56 513.02-3.94Q514.60-5.32 514.60-7.60L514.60-7.60L514.60-7.84Q514.60-10.04 512.98-11.20Q511.36-12.36 507.72-12.88L507.72-12.88Q505.60-13.16 503.90-13.74Q502.20-14.32 501.00-15.26Q499.80-16.20 499.16-17.52Q498.52-18.84 498.52-20.64L498.52-20.64L498.52-21.12Q498.52-22.76 499.20-24.12Q499.88-25.48 501.10-26.48Q502.32-27.48 504.02-28.02Q505.72-28.56 507.76-28.56L507.76-28.56Q510.12-28.56 511.98-27.88Q513.84-27.20 515.12-26.06Q516.40-24.92 517.06-23.38Q517.72-21.84 517.72-20.16L517.72-20.16L517.72-18.48L514.36-18.48Z M531.24-25.76L531.24-25.76Q531.24-26.92 532.06-27.74Q532.88-28.56 534.04-28.56L534.04-28.56Q535.20-28.56 536.02-27.74Q536.84-26.92 536.84-25.76L536.84-25.76Q536.84-24.60 536.02-23.78Q535.20-22.96 534.04-22.96L534.04-22.96Q532.88-22.96 532.06-23.78Q531.24-24.60 531.24-25.76ZM525.56 0L525.56-2.88L532.52-2.88L532.52-16.96L526.28-16.96L526.28-19.84L535.64-19.84L535.64-2.88L542.12-2.88L542.12 0L525.56 0Z M570.24-15.28L570.24 0L567.12 0L567.12-14.24Q567.12-15.64 566.48-16.54Q565.84-17.44 564.44-17.44L564.44-17.44Q563.12-17.44 562.30-16.46Q561.48-15.48 561.48-13.44L561.48-13.44L561.48 0L558.36 0L558.36-14.40Q558.36-15.72 557.64-16.58Q556.92-17.44 555.72-17.44L555.72-17.44Q554.28-17.44 553.50-16.40Q552.72-15.36 552.72-13.68L552.72-13.68L552.72 0L549.60 0L549.60-19.84L552.72-19.84L552.72-17.68L553.20-17.68Q553.72-19.08 554.72-19.74Q555.72-20.40 557.08-20.40L557.08-20.40Q558.52-20.40 559.46-19.64Q560.40-18.88 560.76-17.68L560.76-17.68L561.24-17.68Q562.60-20.40 565.56-20.40L565.56-20.40Q567.80-20.40 569.02-18.98Q570.24-17.56 570.24-15.28L570.24-15.28Z M579.64-3.04L579.64 8L576.52 8L576.52-19.84L579.64-19.84L579.64-16.72L580.12-16.72Q581.16-18.52 583.00-19.46Q584.84-20.40 587.00-20.40L587.00-20.40Q588.84-20.40 590.48-19.72Q592.12-19.04 593.38-17.76Q594.64-16.48 595.38-14.60Q596.12-12.72 596.12-10.32L596.12-10.32L596.12-9.52Q596.12-7.08 595.40-5.20Q594.68-3.32 593.42-2.04Q592.16-0.76 590.48-0.10Q588.80 0.56 586.92 0.56L586.92 0.56Q585.96 0.56 584.96 0.34Q583.96 0.12 583.06-0.34Q582.16-0.80 581.40-1.46Q580.64-2.12 580.12-3.04L580.12-3.04L579.64-3.04ZM586.28-2.40L586.28-2.40Q587.72-2.40 588.92-2.90Q590.12-3.40 591.02-4.32Q591.92-5.24 592.42-6.56Q592.92-7.88 592.92-9.52L592.92-9.52L592.92-10.32Q592.92-11.92 592.42-13.22Q591.92-14.52 591.02-15.46Q590.12-16.40 588.90-16.92Q587.68-17.44 586.28-17.44L586.28-17.44Q584.88-17.44 583.68-16.90Q582.48-16.36 581.58-15.40Q580.68-14.44 580.16-13.10Q579.64-11.76 579.64-10.16L579.64-10.16L579.64-9.68Q579.64-8.04 580.16-6.70Q580.68-5.36 581.58-4.40Q582.48-3.44 583.68-2.92Q584.88-2.40 586.28-2.40Z M603.32 0L603.32-2.88L610.52-2.88L610.52-25.12L603.56-25.12L603.56-28L613.64-28L613.64-2.88L620.84-2.88L620.84 0L603.32 0Z M635.56-25.76L635.56-25.76Q635.56-26.92 636.38-27.74Q637.20-28.56 638.36-28.56L638.36-28.56Q639.52-28.56 640.34-27.74Q641.16-26.92 641.16-25.76L641.16-25.76Q641.16-24.60 640.34-23.78Q639.52-22.96 638.36-22.96L638.36-22.96Q637.20-22.96 636.38-23.78Q635.56-24.60 635.56-25.76ZM629.88 0L629.88-2.88L636.84-2.88L636.84-16.96L630.60-16.96L630.60-19.84L639.96-19.84L639.96-2.88L646.44-2.88L646.44 0L629.88 0Z M655.28-16.96L655.28-19.84L661.40-19.84L661.40-24.88Q661.40-26.24 662.26-27.12Q663.12-28 664.48-28L664.48-28L672.32-28L672.32-25.12L665.60-25.12Q664.52-25.12 664.52-23.92L664.52-23.92L664.52-19.84L672.80-19.84L672.80-16.96L664.52-16.96L664.52 0L661.40 0L661.40-16.96L655.28-16.96Z M687.72-25.76L687.72-25.76Q687.72-26.92 688.54-27.74Q689.36-28.56 690.52-28.56L690.52-28.56Q691.68-28.56 692.50-27.74Q693.32-26.92 693.32-25.76L693.32-25.76Q693.32-24.60 692.50-23.78Q691.68-22.96 690.52-22.96L690.52-22.96Q689.36-22.96 688.54-23.78Q687.72-24.60 687.72-25.76ZM682.04 0L682.04-2.88L689.00-2.88L689.00-16.96L682.76-16.96L682.76-19.84L692.12-19.84L692.12-2.88L698.60-2.88L698.60 0L682.04 0Z M725.92-8.96L709.92-8.96Q710.04-6 711.76-4.20Q713.48-2.40 716.56-2.40L716.56-2.40Q717.96-2.40 719.00-2.72Q720.04-3.04 720.78-3.60Q721.52-4.16 721.98-4.90Q722.44-5.64 722.72-6.48L722.72-6.48L725.68-5.68Q724.84-2.92 722.58-1.18Q720.32 0.56 716.48 0.56L716.48 0.56Q714.36 0.56 712.58-0.18Q710.80-0.92 709.52-2.28Q708.24-3.64 707.52-5.52Q706.80-7.40 706.80-9.68L706.80-9.68L706.80-10.64Q706.80-12.72 707.54-14.52Q708.28-16.32 709.60-17.62Q710.92-18.92 712.70-19.66Q714.48-20.40 716.56-20.40L716.56-20.40Q719.00-20.40 720.78-19.50Q722.56-18.60 723.70-17.28Q724.84-15.96 725.38-14.40Q725.92-12.84 725.92-11.52L725.92-11.52L725.92-8.96ZM716.56-17.44L716.56-17.44Q715.24-17.44 714.10-17.02Q712.96-16.60 712.10-15.84Q711.24-15.08 710.70-14.06Q710.16-13.04 710.00-11.84L710.00-11.84L722.80-11.84Q722.72-13.12 722.18-14.16Q721.64-15.20 720.78-15.92Q719.92-16.64 718.82-17.04Q717.72-17.44 716.56-17.44Z M749.08 0L749.08-3.04L748.60-3.04Q748.12-2.12 747.38-1.44Q746.64-0.76 745.78-0.32Q744.92 0.12 743.96 0.34Q743.00 0.56 742.12 0.56L742.12 0.56Q740.12 0.56 738.40-0.12Q736.68-0.80 735.38-2.08Q734.08-3.36 733.34-5.26Q732.60-7.16 732.60-9.60L732.60-9.60L732.60-10.24Q732.60-12.64 733.36-14.54Q734.12-16.44 735.40-17.74Q736.68-19.04 738.40-19.72Q740.12-20.40 742.04-20.40L742.04-20.40Q744.08-20.40 745.86-19.50Q747.64-18.60 748.60-16.72L748.60-16.72L749.08-16.72L749.08-28L752.20-28L752.20 0L749.08 0ZM742.44-2.40L742.44-2.40Q743.84-2.40 745.04-2.92Q746.24-3.44 747.14-4.40Q748.04-5.36 748.56-6.70Q749.08-8.04 749.08-9.68L749.08-9.68L749.08-10.16Q749.08-11.76 748.56-13.10Q748.04-14.44 747.14-15.40Q746.24-16.36 745.02-16.90Q743.80-17.44 742.44-17.44L742.44-17.44Q741.04-17.44 739.82-16.92Q738.60-16.40 737.70-15.44Q736.80-14.48 736.30-13.16Q735.80-11.84 735.80-10.24L735.80-10.24L735.80-9.60Q735.80-7.92 736.30-6.60Q736.80-5.28 737.70-4.34Q738.60-3.40 739.80-2.90Q741.00-2.40 742.44-2.40Z"/></g>
</svg>
</g><g opacity="1" transform="rotate(0 250.3343 181.0481)">
<svg width="380" height="51.9519" x="250.3343" y="181.0481" version="1.1" preserveAspectRatio="none" viewBox="1.2 -28.8 212.12 29">
  <g transform="matrix(1 0 0 1 0 0)" class="aD6z1nYkhcolor"><path id="id-D6z1nYkh8" d="M34.28 0.20L16.72 0.20Q9.40 0.20 5.30-3.46Q1.20-7.12 1.20-14.32L1.20-14.32Q1.20-21.48 5.38-25.14Q9.56-28.80 17.52-28.80L17.52-28.80L32.72-28.80L32.72-23.60L17.96-23.60Q12.72-23.60 10.22-21.40Q7.72-19.20 7.72-14.32L7.72-14.32Q7.72-9.68 9.92-7.46Q12.12-5.24 16.36-5.04L16.36-5.04L16.36-16.16L34.28-16.16L34.28 0.20ZM22.36-10.96L22.36-5L27.88-5L27.88-10.96L22.36-10.96Z M65.92 0L44.76 0Q41.52 0 39.80-1.64Q38.08-3.28 38.08-6.32L38.08-6.32Q38.08-9.32 39.80-10.96Q41.52-12.60 44.76-12.60L44.76-12.60L60.12-12.60L60.12-13.56Q60.12-16 57.72-16L57.72-16L40.76-16L40.76-20.60L59.24-20.60Q62.88-20.60 64.40-18.94Q65.92-17.28 65.92-14.28L65.92-14.28L65.92 0ZM45.80-4.60L45.80-4.60L60.12-4.60L60.12-8L45.80-8Q45.04-8 44.62-7.54Q44.20-7.08 44.20-6.32L44.20-6.32Q44.20-5.56 44.62-5.08Q45.04-4.60 45.80-4.60Z M76.12 0L70.32 0L70.32-20.60L76.12-20.60L76.12 0ZM76.16-24L70.28-24L70.28-28.52L76.16-28.52L76.16-24Z M86.32 0L80.52 0L80.52-20.60L98.48-20.60Q102-20.60 103.62-18.86Q105.24-17.12 105.24-14.28L105.24-14.28L105.24 0L99.44 0L99.44-13.60Q99.44-16 97.04-16L97.04-16L86.32-16L86.32 0Z M132.80 0.20L109.12 0.20L109.12-5L132.12-4.96Q133.88-4.96 134.82-5.78Q135.76-6.60 135.76-8.44L135.76-8.44Q135.76-10.28 134.82-11.10Q133.88-11.92 132.12-11.92L132.12-11.92L117.80-11.92Q113.36-11.92 110.90-14.06Q108.44-16.20 108.44-20.36L108.44-20.36Q108.44-24.52 110.90-26.66Q113.36-28.80 117.80-28.80L117.80-28.80L140.28-28.80L140.28-23.60L118.48-23.64Q116.76-23.64 115.80-22.86Q114.84-22.08 114.84-20.36L114.84-20.36Q114.84-18.64 115.80-17.86Q116.76-17.08 118.48-17.08L118.48-17.08L132.80-17.08Q137.24-17.08 139.70-14.90Q142.16-12.72 142.16-8.44L142.16-8.44Q142.16-4.20 139.70-2Q137.24 0.20 132.80 0.20L132.80 0.20Z M151.36 0L145.56 0L145.56-20.60L151.36-20.60L151.36 0ZM151.40-24L145.52-24L145.52-28.52L151.40-28.52L151.40-24Z M175.32 0L181.12 0L181.12-28.60L175.32-28.60L175.32 0ZM166.32 0L180.12 0L180.12-4.60L166.32-4.60Q163.72-4.60 162.34-6.02Q160.96-7.44 160.96-10.28L160.96-10.28Q160.96-13.16 162.34-14.58Q163.72-16 166.32-16L166.32-16L179.72-16L179.72-20.60L166.32-20.60Q160.96-20.60 157.96-17.96Q154.96-15.32 154.96-10.28L154.96-10.28Q154.96-5.28 157.96-2.64Q160.96 0 166.32 0L166.32 0Z M212.28 0.20L196.08 0.20Q190.72 0.20 187.72-2.46Q184.72-5.12 184.72-10.28L184.72-10.28Q184.72-15.48 187.72-18.14Q190.72-20.80 196.08-20.80L196.08-20.80L206.08-20.80Q209.60-20.80 211.46-19.14Q213.32-17.48 213.32-14.40L213.32-14.40Q213.32-8.12 206.08-8.12L206.08-8.12L190.96-8.12Q191.80-4.40 196.08-4.40L196.08-4.40L212.28-4.40L212.28 0.20ZM205.80-16.20L196.08-16.20Q191.96-16.20 191-12.72L191-12.72L205.80-12.72Q206.60-12.72 207.06-13.20Q207.52-13.68 207.52-14.52L207.52-14.52Q207.52-16.20 205.80-16.20L205.80-16.20Z"/></g>
</svg>
</g><g opacity="0.2" transform="rotate(0 250 243.3903)">
<svg width="306.5293" height="6.2336" x="250" y="243.3903" version="1.1" preserveAspectRatio="none" viewBox="0 0 306.5293 6.2336">
  <defs><rect x="0" y="0" width="306.5293" height="6.2336" rx="0px" ry="0px" id="id-o0jQam8yd"></rect></defs><use class="ao0jQam8ydfillColor ao0jQam8ydstrokeColor-str" style="stroke-width:0;" xlink:href="#id-o0jQam8yd"></use>
</svg>
</g><g opacity="1" transform="rotate(0 128 181.0481)">
<svg width="100" height="100" x="128" y="181.0481" version="1.1" preserveAspectRatio="none" viewBox="20 19.5 160 160">
  <g transform="matrix(1 0 0 1 0 0)"><g><path d="M180 114.7l-80 40.7-80-40.7v-8.8l80 40.7 80-40.7v8.8z" data-color="1" style="fill:#000000;fill-opacity:1;"></path><path d="M139.6 70.8L180 90.6v-8.5l-40.4-19.8" data-color="1" style="fill:#000000;fill-opacity:1;"></path><path d="M60.4 62.3L20 82.1v8.5l40.3-19.8" data-color="1" style="fill:#000000;fill-opacity:1;"></path><path d="M180 90.6l-80 40.7-80-40.7v-8.8l80 40.7 80-40.7v8.8z" data-color="1" style="fill:#000000;fill-opacity:1;"></path><path d="M180 138.8l-80 40.7-80-40.7V130l80 40.7 80-40.7v8.8z" data-color="1" style="fill:#000000;fill-opacity:1;"></path><path d="M139.6 62.3L100 42.9 60.4 62.3l-.1 8.6L100 51.4l39.6 19.4v-8.5z" data-color="2" style="fill:#3F3F3F;fill-opacity:1;"></path><path d="M180 90.6l-80 40.7-80-40.7v-8.8l80 40.7 80-40.7v8.8z" data-color="1" style="fill:#000000;fill-opacity:1;"></path><path d="M139.6 85.7L100 66.2 60.4 85.7l-.1 8.6L100 74.8l39.6 19.4v-8.5z" data-color="2" style="fill:#3F3F3F;fill-opacity:1;"></path><path d="M139.6 38.9L100 19.5 60.4 38.9l-.1 8.6L100 28l39.6 19.4v-8.5z" data-color="2" style="fill:#3F3F3F;fill-opacity:1;"></path></g></g>
</svg>
</g><g opacity="0.2" transform="rotate(0 623.501 162.8988)">
<svg width="25.2986" height="25.2986" x="623.501" y="162.8988" version="1.1" preserveAspectRatio="none" viewBox="29.5 29.5 141 141">
  <defs><g transform="matrix(1 0 0 1 0 0)" id="id--A3J1ferP"><g><path d="M100 170.5c-38.874 0-70.5-31.626-70.5-70.5S61.126 29.5 100 29.5s70.5 31.626 70.5 70.5-31.626 70.5-70.5 70.5zm0-133c-34.463 0-62.5 28.037-62.5 62.5s28.037 62.5 62.5 62.5 62.5-28.037 62.5-62.5-28.037-62.5-62.5-62.5z"></path></g></g></defs><use class="a-A3J1ferPfillColor a-A3J1ferPstrokeColor-str" style="stroke-width:0;" xlink:href="#id--A3J1ferP"></use>
</svg>
</g><g opacity="1" transform="rotate(0 631.619 169.0481)">
<svg width="9.0625" height="13" x="631.619" y="169.0481" version="1.1" preserveAspectRatio="none" viewBox="2.92 -28 19.519999999999996 28">
  <g transform="matrix(1 0 0 1 0 0)" class="aB8Zg4pULXcolor"><path id="id-B8Zg4pULX1" d="M21.72-9.68L21.72 0L16.44 0L16.44-8.40Q16.44-9.36 15.94-9.96Q15.44-10.56 14.28-10.56L14.28-10.56L8.20-10.56L8.20 0L2.92 0L2.92-28L13.64-28Q15.80-28 17.44-27.40Q19.08-26.80 20.18-25.74Q21.28-24.68 21.86-23.28Q22.44-21.88 22.44-20.28L22.44-20.28L22.44-19.32Q22.44-17.60 21.52-16.10Q20.60-14.60 18.68-13.80L18.68-13.80L18.68-13.08Q20.08-12.92 20.90-12Q21.72-11.08 21.72-9.68L21.72-9.68ZM8.20-22.96L8.20-15.60L13.24-15.60Q15.16-15.60 16.16-16.50Q17.16-17.40 17.16-19.04L17.16-19.04L17.16-19.52Q17.16-20.92 16.16-21.94Q15.16-22.96 13.24-22.96L13.24-22.96L8.20-22.96Z"/></g>
</svg>
</g></svg>